HIERARCHY
ROOT mixamorig:Hips
{
	OFFSET 0.000000 201.639420 0.000000
	CHANNELS 6 Xposition Yposition Zposition Xrotation Yrotation Zrotation
	JOINT mixamorig:Spine
	{
		OFFSET 0.006200 19.524994 -2.481800
		CHANNELS 3 Xrotation Yrotation Zrotation
		JOINT mixamorig:Spine1
		{
			OFFSET -0.000900 22.835007 -2.825400
			CHANNELS 3 Xrotation Yrotation Zrotation
			JOINT mixamorig:Spine2
			{
				OFFSET -0.020600 26.552490 -3.193300
				CHANNELS 3 Xrotation Yrotation Zrotation
				JOINT mixamorig:Neck
				{
					OFFSET -0.060000 30.701813 1.352200
					CHANNELS 3 Xrotation Yrotation Zrotation
					JOINT mixamorig:Head
					{
						OFFSET -0.087200 22.547607 3.670900
						CHANNELS 3 Xrotation Yrotation Zrotation
						JOINT mixamorig:HeadTop_End
						{
							OFFSET -0.830600 40.355194 7.893500
							CHANNELS 3 Xrotation Yrotation Zrotation
							End Site
							{
								OFFSET 0.000000 30.592346 0.000000
							}
						}
						JOINT mixamorig:RightEye
						{
							OFFSET -6.302100 18.118591 16.197100
							CHANNELS 3 Xrotation Yrotation Zrotation
							End Site
							{
								OFFSET 0.000000 30.592346 0.000000
							}
						}
						JOINT mixamorig:LeftEye
						{
							OFFSET 6.741500 18.382690 16.401899
							CHANNELS 3 Xrotation Yrotation Zrotation
							End Site
							{
								OFFSET 0.000000 30.592346 0.000000
							}
						}
					}
				}
				JOINT mixamorig:LeftShoulder
				{
					OFFSET 11.924900 18.230499 1.425400
					CHANNELS 3 Xrotation Yrotation Zrotation
					JOINT mixamorig:LeftArm
					{
						OFFSET 25.435989 -0.697632 -5.229300
						CHANNELS 3 Xrotation Yrotation Zrotation
						JOINT mixamorig:LeftForeArm
						{
							OFFSET 54.684776 0.000000 0.000000
							CHANNELS 3 Xrotation Yrotation Zrotation
							JOINT mixamorig:LeftHand
							{
								OFFSET 55.098175 0.000000 0.000000
								CHANNELS 3 Xrotation Yrotation Zrotation
								JOINT mixamorig:LeftHandMiddle1
								{
									OFFSET 23.369751 0.000000 0.000000
									CHANNELS 3 Xrotation Yrotation Zrotation
									JOINT mixamorig:LeftHandMiddle2
									{
										OFFSET 6.378677 0.000000 0.000000
										CHANNELS 3 Xrotation Yrotation Zrotation
										JOINT mixamorig:LeftHandMiddle3
										{
											OFFSET 6.148331 0.000000 0.000000
											CHANNELS 3 Xrotation Yrotation Zrotation
											JOINT mixamorig:LeftHandMiddle4
											{
												OFFSET 6.582504 0.000000 0.000000
												CHANNELS 3 Xrotation Yrotation Zrotation
												End Site
												{
													OFFSET -1.168900 6.395691 1.028606
												}
											}
										}
									}
								}
								JOINT mixamorig:LeftHandThumb1
								{
									OFFSET 7.235672 -3.848206 5.434273
									CHANNELS 3 Xrotation Yrotation Zrotation
									JOINT mixamorig:LeftHandThumb2
									{
										OFFSET 6.568451 -3.792297 3.792300
										CHANNELS 3 Xrotation Yrotation Zrotation
										JOINT mixamorig:LeftHandThumb3
										{
											OFFSET 6.063080 -3.500519 3.500518
											CHANNELS 3 Xrotation Yrotation Zrotation
											JOINT mixamorig:LeftHandThumb4
											{
												OFFSET 4.793182 -2.767334 2.767349
												CHANNELS 3 Xrotation Yrotation Zrotation
												End Site
												{
													OFFSET 0.101639 6.054260 1.275483
												}
											}
										}
									}
								}
								JOINT mixamorig:LeftHandIndex1
								{
									OFFSET 23.101074 -0.309540 4.992809
									CHANNELS 3 Xrotation Yrotation Zrotation
									JOINT mixamorig:LeftHandIndex2
									{
										OFFSET 6.226883 0.000000 0.000000
										CHANNELS 3 Xrotation Yrotation Zrotation
										JOINT mixamorig:LeftHandIndex3
										{
											OFFSET 6.094330 0.000000 0.000000
											CHANNELS 3 Xrotation Yrotation Zrotation
											JOINT mixamorig:LeftHandIndex4
											{
												OFFSET 5.482605 0.000000 0.000000
												CHANNELS 3 Xrotation Yrotation Zrotation
												End Site
												{
													OFFSET -1.427902 5.233032 0.797164
												}
											}
										}
									}
								}
								JOINT mixamorig:LeftHandRing1
								{
									OFFSET 22.299240 0.021149 -3.964172
									CHANNELS 3 Xrotation Yrotation Zrotation
									JOINT mixamorig:LeftHandRing2
									{
										OFFSET 6.321869 0.000000 0.000000
										CHANNELS 3 Xrotation Yrotation Zrotation
										JOINT mixamorig:LeftHandRing3
										{
											OFFSET 5.899796 0.000000 0.000000
											CHANNELS 3 Xrotation Yrotation Zrotation
											JOINT mixamorig:LeftHandRing4
											{
												OFFSET 6.517899 0.000000 0.000000
												CHANNELS 3 Xrotation Yrotation Zrotation
												End Site
												{
													OFFSET -1.637299 6.232208 0.980890
												}
											}
										}
									}
								}
								JOINT mixamorig:LeftHandPinky1
								{
									OFFSET 20.463791 -0.302338 -8.562233
									CHANNELS 3 Xrotation Yrotation Zrotation
									JOINT mixamorig:LeftHandPinky2
									{
										OFFSET 6.908646 0.000000 0.000000
										CHANNELS 3 Xrotation Yrotation Zrotation
										JOINT mixamorig:LeftHandPinky3
										{
											OFFSET 4.622849 0.000000 0.000000
											CHANNELS 3 Xrotation Yrotation Zrotation
											JOINT mixamorig:LeftHandPinky4
											{
												OFFSET 5.216080 0.000000 0.000000
												CHANNELS 3 Xrotation Yrotation Zrotation
												End Site
												{
													OFFSET -0.606308 5.116241 0.814926
												}
											}
										}
									}
								}
							}
						}
					}
				}
				JOINT mixamorig:RightShoulder
				{
					OFFSET -12.001300 18.284088 1.348900
					CHANNELS 3 Xrotation Yrotation Zrotation
					JOINT mixamorig:RightArm
					{
						OFFSET -25.308500 -0.751312 -5.164599
						CHANNELS 3 Xrotation Yrotation Zrotation
						JOINT mixamorig:RightForeArm
						{
							OFFSET -54.684429 0.000000 0.000000
							CHANNELS 3 Xrotation Yrotation Zrotation
							JOINT mixamorig:RightHand
							{
								OFFSET -55.150291 0.000000 0.000000
								CHANNELS 3 Xrotation Yrotation Zrotation
								JOINT mixamorig:RightHandMiddle1
								{
									OFFSET -23.317566 0.000000 0.000000
									CHANNELS 3 Xrotation Yrotation Zrotation
									JOINT mixamorig:RightHandMiddle2
									{
										OFFSET -6.378403 0.000000 0.000000
										CHANNELS 3 Xrotation Yrotation Zrotation
										JOINT mixamorig:RightHandMiddle3
										{
											OFFSET -6.148193 0.000000 0.000000
											CHANNELS 3 Xrotation Yrotation Zrotation
											JOINT mixamorig:RightHandMiddle4
											{
												OFFSET -6.583389 0.000000 0.000000
												CHANNELS 3 Xrotation Yrotation Zrotation
												End Site
												{
													OFFSET 1.171692 6.395905 1.029786
												}
											}
										}
									}
								}
								JOINT mixamorig:RightHandThumb1
								{
									OFFSET -7.190521 -3.860474 5.435846
									CHANNELS 3 Xrotation Yrotation Zrotation
									JOINT mixamorig:RightHandThumb2
									{
										OFFSET -6.567429 -3.791718 3.791708
										CHANNELS 3 Xrotation Yrotation Zrotation
										JOINT mixamorig:RightHandThumb3
										{
											OFFSET -6.062469 -3.500153 3.500166
											CHANNELS 3 Xrotation Yrotation Zrotation
											JOINT mixamorig:RightHandThumb4
											{
												OFFSET -4.792618 -2.767029 2.767022
												CHANNELS 3 Xrotation Yrotation Zrotation
												End Site
												{
													OFFSET -0.100327 6.053253 1.276754
												}
											}
										}
									}
								}
								JOINT mixamorig:RightHandIndex1
								{
									OFFSET -23.048981 -0.310791 4.992554
									CHANNELS 3 Xrotation Yrotation Zrotation
									JOINT mixamorig:RightHandIndex2
									{
										OFFSET -6.227539 0.000000 0.000000
										CHANNELS 3 Xrotation Yrotation Zrotation
										JOINT mixamorig:RightHandIndex3
										{
											OFFSET -6.095047 0.000000 0.000000
											CHANNELS 3 Xrotation Yrotation Zrotation
											JOINT mixamorig:RightHandIndex4
											{
												OFFSET -5.484772 0.000000 0.000000
												CHANNELS 3 Xrotation Yrotation Zrotation
												End Site
												{
													OFFSET 1.420593 5.237305 0.797056
												}
											}
										}
									}
								}
								JOINT mixamorig:RightHandRing1
								{
									OFFSET -22.246323 0.020569 -3.963762
									CHANNELS 3 Xrotation Yrotation Zrotation
									JOINT mixamorig:RightHandRing2
									{
										OFFSET -6.322128 0.000000 0.000000
										CHANNELS 3 Xrotation Yrotation Zrotation
										JOINT mixamorig:RightHandRing3
										{
											OFFSET -5.900024 0.000000 0.000000
											CHANNELS 3 Xrotation Yrotation Zrotation
											JOINT mixamorig:RightHandRing4
											{
												OFFSET -6.518356 0.000000 0.000000
												CHANNELS 3 Xrotation Yrotation Zrotation
												End Site
												{
													OFFSET 1.636398 6.232697 0.982186
												}
											}
										}
									}
								}
								JOINT mixamorig:RightHandPinky1
								{
									OFFSET -20.411011 -0.303314 -8.561701
									CHANNELS 3 Xrotation Yrotation Zrotation
									JOINT mixamorig:RightHandPinky2
									{
										OFFSET -6.907349 0.000000 0.000000
										CHANNELS 3 Xrotation Yrotation Zrotation
										JOINT mixamorig:RightHandPinky3
										{
											OFFSET -4.623840 0.000000 0.000000
											CHANNELS 3 Xrotation Yrotation Zrotation
											JOINT mixamorig:RightHandPinky4
											{
												OFFSET -5.218353 0.000000 0.000000
												CHANNELS 3 Xrotation Yrotation Zrotation
												End Site
												{
													OFFSET 0.602097 5.118835 0.816273
												}
											}
										}
									}
								}
							}
						}
					}
				}
			}
		}
	}
	JOINT mixamorig:LeftUpLeg
	{
		OFFSET 18.168400 -13.561905 -0.039000
		CHANNELS 3 Xrotation Yrotation Zrotation
		JOINT mixamorig:LeftLeg
		{
			OFFSET 0.577358 -80.825211 -3.695000
			CHANNELS 3 Xrotation Yrotation Zrotation
			JOINT mixamorig:LeftFoot
			{
				OFFSET -0.577356 -83.370262 -6.520700
				CHANNELS 3 Xrotation Yrotation Zrotation
				JOINT mixamorig:LeftToeBase
				{
					OFFSET 0.750401 -20.798306 25.135401
					CHANNELS 3 Xrotation Yrotation Zrotation
					JOINT mixamorig:LeftToe_End
					{
						OFFSET -0.000500 0.001200 19.917799
						CHANNELS 3 Xrotation Yrotation Zrotation
						End Site
						{
							OFFSET 0.000000 19.917805 0.000000
						}
					}
				}
			}
		}
	}
	JOINT mixamorig:RightUpLeg
	{
		OFFSET -18.162500 -13.585098 -0.041000
		CHANNELS 3 Xrotation Yrotation Zrotation
		JOINT mixamorig:RightLeg
		{
			OFFSET -0.595024 -80.945297 -3.631900
			CHANNELS 3 Xrotation Yrotation Zrotation
			JOINT mixamorig:RightFoot
			{
				OFFSET 0.595024 -83.218193 -6.561200
				CHANNELS 3 Xrotation Yrotation Zrotation
				JOINT mixamorig:RightToeBase
				{
					OFFSET -0.753601 -20.807106 25.115000
					CHANNELS 3 Xrotation Yrotation Zrotation
					JOINT mixamorig:RightToe_End
					{
						OFFSET 0.000299 0.001700 19.918200
						CHANNELS 3 Xrotation Yrotation Zrotation
						End Site
						{
							OFFSET 0.000000 19.918203 0.000000
						}
					}
				}
			}
		}
	}
}
MOTION
Frames: 5
Frame Time: 0.033333
-5.300325 187.778229 1.452171 -3.360362 -6.541220 -5.081849 6.362164 -0.256807 1.848775 12.735309 -0.681131 3.666269 12.735314 -0.681134 3.666271 -9.336606 -32.298735 -3.919137 -16.123257 -20.137983 3.992567 -0.000000 -0.000000 -0.000000 -0.000000 -0.000000 -0.000000 -0.000000 -0.000000 -0.000000 1.077319 7.661541 18.948145 -19.047343 -17.784892 -75.893148 5.329726 -56.919211 4.469420 -15.349385 -36.701523 2.368984 8.296606 -1.330543 -19.565422 -0.359097 -1.307099 -23.355253 -0.000002 0.000002 0.000005 0.000002 0.000002 0.000003 -21.566788 -17.860323 -13.789256 4.656312 19.319788 5.490913 -0.000004 0.000011 -0.000004 0.000000 -0.000001 -0.000002 -1.283656 -3.834303 -25.182342 -0.325574 0.549490 -30.640314 0.000001 0.000005 -0.000006 -0.000002 0.000002 -0.000000 8.319174 0.222829 -30.310614 -0.499811 -1.303123 -28.473524 -0.000001 0.000003 -0.000009 -0.000001 0.000000 -0.000002 18.258043 2.781855 -45.624663 -0.741440 -3.823074 -30.059943 -0.000006 0.000012 0.000006 0.000000 0.000003 0.000002 7.569857 -19.481521 -11.217694 2.013996 15.266296 62.986714 3.218558 75.876558 -3.120641 11.569617 -7.228697 1.681184 -8.600930 -7.935689 -4.076964 -0.524484 1.943102 28.125163 0.000003 0.000002 -0.000007 0.000001 0.000000 -0.000000 15.195137 17.397728 -3.093467 -1.378721 -7.539269 -6.236881 -0.000012 0.000010 -0.000002 0.000002 -0.000004 0.000000 0.752206 2.746430 -14.521433 -0.800925 0.708308 35.408858 0.000007 0.000005 0.000003 -0.000002 0.000000 -0.000000 -9.138004 -17.671781 -3.558243 -0.235317 0.164333 29.456728 0.000001 -0.000004 0.000002 -0.000000 0.000000 0.000001 -19.728964 -27.442913 -4.567977 -0.049055 1.586625 28.798547 0.000001 -0.000002 0.000004 0.000000 0.000000 -0.000000 4.935180 14.962907 16.344474 28.216386 0.705633 -0.978391 -22.457102 -0.024824 -11.852144 -11.853613 0.483667 0.110527 -0.000000 0.000001 0.000000 -32.402387 2.553708 4.422131 30.674260 0.481972 1.308817 3.048378 -6.602706 1.121380 0.266985 -0.121067 0.130999 -0.000000 -0.000000 -0.000000 
-5.578545 187.788895 1.352643 -3.249109 -6.281439 -5.070423 6.376596 -0.232205 1.826440 12.763239 -0.631886 3.617307 12.763240 -0.631884 3.617303 -9.098340 -32.002592 -4.349621 -16.485920 -20.148433 4.049016 0.000000 0.000000 -0.000000 0.000000 0.000000 -0.000000 0.000000 0.000000 -0.000000 1.070387 7.705013 19.021139 -19.161793 -17.831370 -75.751989 5.564722 -57.693344 4.707317 -15.398996 -35.418178 1.704621 8.264848 -1.529898 -19.683987 -0.365356 -1.320656 -23.528439 -0.000002 -0.000002 0.000006 0.000002 0.000002 -0.000000 -21.393793 -17.816902 -13.810372 4.617415 19.331486 5.514517 -0.000001 0.000011 -0.000010 0.000001 0.000000 -0.000003 -1.295761 -3.801541 -25.447451 -0.328443 0.545380 -30.779069 0.000003 0.000003 -0.000007 -0.000002 -0.000001 -0.000002 8.307960 0.156049 -29.976303 -0.498211 -1.299483 -28.431678 -0.000002 -0.000002 -0.000007 -0.000001 -0.000003 -0.000002 18.206081 2.843937 -45.201277 -0.734860 -3.809137 -29.973220 -0.000007 0.000018 0.000009 0.000002 -0.000007 -0.000000 7.579847 -19.369320 -11.265930 1.982358 14.992014 62.958464 3.232171 75.757398 -3.132192 11.667002 -7.132934 1.959991 -8.593899 -7.891333 -3.997092 -0.511604 1.912855 27.651650 0.000002 0.000003 -0.000005 0.000004 -0.000000 -0.000004 15.529335 17.238043 -3.032513 -1.855766 -7.775644 -6.627809 -0.000011 0.000009 0.000005 0.000001 -0.000000 0.000003 0.762232 2.894927 -14.401922 -0.797358 0.682163 35.056386 0.000002 0.000002 0.000005 0.000002 -0.000003 0.000003 -9.224782 -17.375552 -3.967286 -0.217113 0.118285 28.292056 -0.000002 -0.000003 0.000003 0.000000 0.000001 -0.000002 -20.148539 -27.386842 -6.084028 -0.046548 1.564679 28.191560 0.000003 -0.000001 0.000003 0.000000 -0.000000 0.000000 4.776721 14.770170 16.494210 28.157144 0.725422 -0.975438 -22.465189 -0.141372 -11.956778 -11.881339 0.477240 0.122363 -0.000000 0.000000 0.000000 -32.478072 2.407894 4.413256 30.623474 0.478246 1.308017 3.111651 -6.736834 1.072901 0.261224 -0.122089 0.131115 -0.000000 -0.000000 0.000000 
-5.828812 187.799698 1.235874 -3.146486 -6.032949 -5.048884 6.396179 -0.203429 1.800837 12.801349 -0.574725 3.562863 12.801349 -0.574726 3.562860 -8.864188 -31.666109 -4.789804 -16.865296 -20.142197 4.105299 -0.000000 0.000001 -0.000001 -0.000000 0.000001 -0.000001 -0.000000 0.000001 -0.000001 1.061174 7.763242 19.144523 -19.231381 -17.633940 -75.725611 5.849558 -58.772535 5.006498 -15.687158 -33.706123 0.837775 8.275169 -1.536159 -19.592809 -0.373199 -1.337371 -23.747250 -0.000002 -0.000004 0.000003 -0.000000 0.000005 0.000002 -21.320111 -17.760985 -13.758926 4.713169 19.298256 5.491081 -0.000004 0.000012 -0.000005 0.000001 -0.000000 -0.000001 -1.269787 -3.880777 -25.412767 -0.328587 0.544654 -30.947420 0.000002 0.000006 -0.000001 0.000001 0.000001 -0.000002 8.346577 0.206219 -29.836541 -0.494828 -1.292369 -28.330586 -0.000001 0.000000 -0.000009 -0.000002 0.000004 0.000003 18.286520 2.976866 -45.155788 -0.732840 -3.798502 -29.911659 -0.000006 0.000009 0.000005 0.000001 -0.000003 0.000002 7.585866 -19.272960 -11.346611 1.933837 14.805243 62.889841 3.239394 75.602858 -3.137060 11.609457 -6.952083 2.121055 -8.571011 -7.770075 -3.732874 -0.506166 1.895502 27.379556 -0.000001 0.000003 -0.000003 0.000000 0.000001 -0.000001 15.928336 17.656550 -2.792917 -2.265748 -7.969969 -6.965686 -0.000015 0.000010 0.000000 -0.000002 -0.000002 -0.000001 0.694700 3.011779 -13.881039 -0.790863 0.652692 34.803246 0.000005 0.000003 0.000001 -0.000002 0.000001 -0.000000 -9.299139 -16.632945 -4.196372 -0.206199 0.090578 27.519635 -0.000001 -0.000004 0.000001 -0.000002 0.000001 0.000000 -20.929520 -27.385394 -8.952576 -0.030746 1.508049 27.220732 0.000002 -0.000002 0.000004 -0.000001 0.000000 0.000001 4.598936 14.560174 16.623646 28.153116 0.741728 -0.973523 -22.460307 -0.228754 -12.049307 -11.894609 0.463353 0.135427 0.000001 0.000001 0.000000 -32.558279 2.349930 4.417102 30.570909 0.477341 1.307056 3.182280 -6.941594 1.054456 0.253556 -0.127646 0.130637 -0.000000 -0.000001 -0.000000 
-6.053308 187.806000 1.115274 -3.062298 -5.807357 -5.027811 6.419562 -0.165119 1.776923 12.846832 -0.498582 3.511415 12.846831 -0.498584 3.511416 -8.624509 -31.301674 -5.237423 -17.194178 -20.130014 4.162099 -0.000000 0.000001 0.000000 -0.000000 0.000001 0.000000 -0.000000 0.000001 0.000000 1.048809 7.839034 19.284634 -19.249674 -17.282860 -75.774324 6.207403 -60.142138 5.388455 -15.867154 -31.933583 -0.216568 8.279661 -1.422077 -19.595082 -0.374150 -1.338653 -23.764701 -0.000002 0.000002 0.000011 -0.000001 0.000002 0.000001 -21.207152 -17.699324 -13.707501 4.716746 19.295984 5.500486 -0.000003 0.000011 -0.000000 0.000002 -0.000000 -0.000002 -1.251536 -3.901398 -25.464373 -0.327710 0.543842 -31.106321 0.000001 0.000006 -0.000007 -0.000002 0.000001 -0.000002 8.353304 0.227308 -29.955581 -0.493339 -1.285445 -28.234409 0.000000 0.000002 -0.000007 -0.000001 0.000000 -0.000000 18.272793 2.945901 -45.249167 -0.735974 -3.792404 -29.897282 -0.000005 0.000013 0.000007 -0.000001 0.000001 -0.000001 7.589613 -19.173953 -11.468477 1.885593 14.771286 62.737391 3.217217 75.334029 -3.111766 11.346339 -6.730917 2.041182 -8.566011 -7.762758 -3.411821 -0.500819 1.875017 27.054926 0.000001 0.000003 -0.000002 -0.000001 -0.000001 -0.000001 16.022756 17.810881 -2.687096 -2.483136 -8.053877 -7.153310 -0.000016 0.000013 -0.000001 -0.000003 -0.000002 -0.000001 0.603344 3.007835 -13.355933 -0.783880 0.622533 34.497233 0.000003 0.000000 0.000003 -0.000002 -0.000002 0.000000 -9.277222 -16.227008 -3.933231 -0.194625 0.070670 26.877059 -0.000002 -0.000004 0.000001 0.000000 -0.000001 -0.000003 -21.221049 -27.421905 -10.026131 -0.038901 1.508775 26.795117 0.000003 -0.000002 0.000002 0.000000 -0.000000 -0.000001 4.428581 14.335454 16.730890 28.190347 0.753587 -0.972417 -22.454206 -0.271740 -12.124822 -11.903888 0.442989 0.150622 0.000000 0.000000 0.000000 -32.631543 2.309505 4.417529 30.530399 0.477591 1.305868 3.250002 -7.136086 1.058378 0.237942 -0.137960 0.129486 0.000000 -0.000000 -0.000000 
-6.252413 187.810684 0.998523 -3.000005 -5.583437 -5.014594 6.441374 -0.115503 1.756964 12.888875 -0.399538 3.466646 12.888881 -0.399537 3.466645 -8.341281 -30.946921 -5.706757 -17.450274 -20.152987 4.226750 -0.000000 0.000002 -0.000000 -0.000000 0.000002 -0.000000 -0.000000 0.000002 -0.000000 1.035667 7.917560 19.401929 -19.256089 -16.936747 -75.848950 6.619068 -61.632424 5.829849 -15.651390 -30.551412 -1.248089 8.283735 -1.353682 -19.573504 -0.372244 -1.333517 -23.699751 -0.000003 0.000004 0.000003 -0.000000 0.000001 -0.000000 -21.024562 -17.584636 -13.638473 4.698946 19.302304 5.517963 -0.000002 0.000010 -0.000003 0.000002 0.000001 -0.000001 -1.248425 -3.979536 -25.554145 -0.327345 0.539886 -31.205113 0.000001 0.000003 -0.000004 -0.000000 -0.000001 -0.000001 8.414353 0.351696 -30.179317 -0.492531 -1.276376 -28.109244 -0.000001 -0.000003 -0.000008 -0.000002 0.000002 -0.000001 18.322525 2.989545 -45.358105 -0.740777 -3.784636 -29.855081 -0.000006 0.000013 0.000008 0.000000 -0.000002 0.000001 7.591606 -19.068911 -11.632614 1.833691 14.884089 62.537676 3.154691 74.876932 -3.044811 11.017877 -6.491635 1.845979 -8.574559 -7.819985 -3.254554 -0.490709 1.845656 26.569934 0.000003 0.000003 -0.000006 0.000001 -0.000001 -0.000003 16.065421 17.735846 -2.688885 -2.681752 -8.122748 -7.327184 -0.000011 0.000011 0.000001 -0.000001 0.000000 0.000002 0.536857 3.008831 -12.954314 -0.778105 0.597680 34.145584 0.000007 0.000001 0.000003 0.000001 -0.000001 -0.000003 -9.259635 -16.048248 -3.765970 -0.177249 0.040126 25.902775 -0.000002 -0.000002 0.000003 0.000001 0.000000 0.000000 -21.356436 -27.388669 -10.476256 -0.053388 1.525972 26.516907 0.000000 -0.000001 0.000003 0.000000 -0.000000 -0.000001 4.292336 14.059934 16.813310 28.241188 0.763834 -0.972187 -22.454167 -0.256229 -12.179233 -11.925369 0.416452 0.171120 -0.000000 0.000000 0.000000 -32.672862 2.193781 4.388497 30.483377 0.476668 1.304148 3.328098 -7.249448 1.051048 0.221531 -0.145294 0.127581 0.000000 -0.000001 -0.000000 
